<svg id="Calque_1" xmlns="http://www.w3.org/2000/svg" width="350" height="71.3" viewBox="0 0 350 71.3"><style>.st0{fill:#fff}</style><path class="st0" d="M15.5 3.2v54.2h22.4c2.1 0 3 1.5 3 5v3.1c0 3.5-.9 5-3 5H4c-2.8 0-4-1.2-4-4V3.2C0 1.1 1.8 0 6 0h3.4c4.3 0 6.1 1.1 6.1 3.2zm121.3 0V47c0 15.5-10.8 24.3-29.1 24.3S78.5 62.5 78.5 47V3.2c0-2.1 1.8-3.2 6-3.2h3.4c4.2 0 6 1.1 6 3.2V46c0 7 5.5 12.2 13.7 12.2s13.8-5.1 13.8-12.2V3.2c0-2.1 1.8-3.2 6-3.2h3.3c4.3 0 6.1 1.1 6.1 3.2zm114.5 0v64.3c0 2.1-1.8 3.2-6 3.2h-2.9c-4.2 0-6-1.1-6-3.2V25.9l-.4-.1-14.6 26c-.9 1.2-2.1 1.9-4 1.9h-2.9c-1.9 0-3.1-.7-4-1.9l-14.6-26-.4.1v41.6c0 2.1-1.8 3.2-6 3.2h-2.9c-4.2 0-6-1.1-6-3.2V3.2c0-2.1 1.8-3.2 6-3.2h5.3c2.9 0 5.2.7 6.3 2.7l16.9 30 .8 1.4.9-1.7 17-29.7c1.1-2 3.4-2.7 6.3-2.7h5.2c4.2 0 6 1.1 6 3.2zm76.3-1.1l22.1 64.6c.2.7.3 1.3.3 1.8 0 1.4-1.5 2.2-5 2.2h-4.4c-2.9 0-5.1-.5-5.6-2.1l-4-12.3h-23.7l-4 12.3c-.5 1.5-2.2 2.1-4.6 2.1h-4c-4.2 0-6.1-.8-6.1-2.2 0-.5.2-1.1.4-1.8l22.1-64.6c.6-1.6 2.8-2.1 5.7-2.1h5.2c2.8 0 5 .5 5.6 2.1zm-8.7 16.7c-.4 2.1-.7 4.3-1.5 6.4l-5.9 17.9h15.1l-5.7-17.9c-.7-2.1-1.1-4.3-1.5-6.4h-.5z"/></svg>