<svg id="Calque_1" xmlns="http://www.w3.org/2000/svg" width="212" height="397" viewBox="0 0 212 397"><style>.st0{fill:none;stroke:#fff;stroke-linecap:round;stroke-linejoin:round;stroke-miterlimit:10}.st1{fill:#fff}.st2{fill:none;stroke:#fff;stroke-miterlimit:10}</style><path class="st0" d="M11.6 302.5v-9.6M11.6 184.9v-7.2c0-47.3 38.7-86 86-86h18c47.3 0 86 38.7 86 86v124.8c0 47.3-38.7 86-86 86h-18c-39 0-72.2-26.3-82.6-62.1M11.6 243.4v-47M11.6 282.9v-25.5M141.6 14.6c.3-2.5.3-5.2 0-8.2M126.6 38.4c7.1-6.8 11.5-11.8 13.6-17.6M106.6 71.5c.3-1.7.6-3.6 1.2-5.7 1.9-6.8 5.7-15.4 13.8-22.7M106.1 77.4v14"/><path class="st1" d="M11.6 213.4h94v-122s-5.8.3-9.3.3c-46.3 0-85.8 40.1-85.8 86v7.7"/><path class="st2" d="M11.6 213.4h190"/></svg>