<?xml version="1.0" encoding="utf-8"?>
<!-- Generator: Adobe Illustrator 19.2.1, SVG Export Plug-In . SVG Version: 6.00 Build 0)  -->
<svg version="1.1" id="Calque_1" xmlns="http://www.w3.org/2000/svg" xmlns:xlink="http://www.w3.org/1999/xlink" x="0px" y="0px"
	 width="212px" height="397px" viewBox="0 0 212 397" style="enable-background:new 0 0 212 397;" xml:space="preserve">
<style type="text/css">
	.st0{fill:none;stroke:#FFFFFF;stroke-linecap:round;stroke-linejoin:round;stroke-miterlimit:10;}
	.st1{fill:#FFFFFF;}
	.st2{fill:none;stroke:#FFFFFF;stroke-miterlimit:10;}
</style>
<g>
	<path class="st0" d="M11.6,302.5v-9.6"/>
	<path class="st0" d="M11.6,184.9v-7.2c0-47.3,38.7-86,86-86h18c47.3,0,86,38.7,86,86v124.8c0,47.3-38.7,86-86,86h-18
		c-39,0-72.2-26.3-82.6-62.1"/>
	<line class="st0" x1="11.6" y1="243.4" x2="11.6" y2="196.4"/>
	<line class="st0" x1="11.6" y1="282.9" x2="11.6" y2="257.4"/>
	<path class="st0" d="M141.6,14.6c0.3-2.5,0.3-5.2,0-8.2"/>
	<path class="st0" d="M126.6,38.4c7.1-6.8,11.5-11.8,13.6-17.6"/>
	<path class="st0" d="M106.6,71.5c0.3-1.7,0.6-3.6,1.2-5.7c1.9-6.8,5.7-15.4,13.8-22.7"/>
	<line class="st0" x1="106.1" y1="77.4" x2="106.1" y2="91.4"/>
	<path class="st1" d="M11.6,213.4h94v-122c0,0-5.8,0.3-9.3,0.3c-46.3,0-85.8,40.1-85.8,86c0,2.6,0,7.7,0,7.7"/>
	<line class="st2" x1="11.6" y1="213.4" x2="201.6" y2="213.4"/>
</g>
</svg>
