<?xml version="1.0" encoding="utf-8"?>
<!-- Generator: Adobe Illustrator 19.2.1, SVG Export Plug-In . SVG Version: 6.00 Build 0)  -->
<svg version="1.1" id="Calque_1" xmlns="http://www.w3.org/2000/svg" xmlns:xlink="http://www.w3.org/1999/xlink" x="0px" y="0px"
	 width="212px" height="397px" viewBox="0 0 212 397" style="enable-background:new 0 0 212 397;" xml:space="preserve">
<style type="text/css">
	.st0{fill:none;stroke:#FFFFFF;stroke-linecap:round;stroke-linejoin:round;stroke-miterlimit:10;}
	.st1{fill:none;stroke:#FFFFFF;stroke-miterlimit:10;}
</style>
<g>
	<path class="st0" d="M11,302.5v-9.6"/>
	<path class="st0" d="M11,184.9v-7.2c0-47.3,38.7-86,86-86h18c47.3,0,86,38.7,86,86v124.8c0,47.3-38.7,86-86,86H97
		c-39,0-72.2-26.3-82.6-62.1"/>
	<line class="st0" x1="11" y1="243.4" x2="11" y2="196.4"/>
	<line class="st0" x1="11" y1="282.9" x2="11" y2="257.4"/>
	<path class="st0" d="M141,14.6c0.3-2.5,0.3-5.2,0-8.2"/>
	<path class="st0" d="M126,38.4c7.1-6.8,11.5-11.8,13.6-17.6"/>
	<path class="st0" d="M106,71.5c0.3-1.7,0.6-3.6,1.2-5.7c1.9-6.8,5.7-15.4,13.8-22.7"/>
	<line class="st0" x1="105.5" y1="77.4" x2="105.5" y2="91.4"/>
	<line class="st1" x1="11" y1="213.4" x2="201" y2="213.4"/>
	<line class="st1" x1="105.5" y1="91.4" x2="105.5" y2="213.4"/>
</g>
</svg>
