<svg id="Calque_1" xmlns="http://www.w3.org/2000/svg" width="212" height="397" viewBox="0 0 212 397"><style>.st0{stroke-linecap:round;stroke-linejoin:round}.st0,.st1{fill:none;stroke:#fff;stroke-miterlimit:10}</style><path class="st0" d="M11 302.5v-9.6M11 184.9v-7.2c0-47.3 38.7-86 86-86h18c47.3 0 86 38.7 86 86v124.8c0 47.3-38.7 86-86 86H97c-39 0-72.2-26.3-82.6-62.1M11 243.4v-47M11 282.9v-25.5M141 14.6c.3-2.5.3-5.2 0-8.2M126 38.4c7.1-6.8 11.5-11.8 13.6-17.6M106 71.5c.3-1.7.6-3.6 1.2-5.7 1.9-6.8 5.7-15.4 13.8-22.7M105.5 77.4v14"/><path class="st1" d="M11 213.4h190M105.5 91.4v122"/></svg>