<svg id="Calque_1" xmlns="http://www.w3.org/2000/svg" viewBox="0 0 300 300"><style>.st0{fill:none;stroke:#fff;stroke-linecap:round;stroke-width:5px;stroke-linejoin:round;stroke-miterlimit:10}</style><path class="st0" d="M119.5 159v-56.1l81.7 47.1-81.7 47.1V176M252 150.5h44M4 150.5h43M150.5 252v44M150.5 4v44"/><path class="st0" d="M249 221.9c-22.4 29.6-57.9 48.7-97.9 48.7-67.8 0-122.8-55-122.8-122.8 0-49.6 29.4-92.2 71.6-111.6M265.1 193.6c-1.5 3.7-3.1 7.3-4.9 10.7M273.3 135.9c.4 3.9.6 7.9.6 11.9 0 5.4-.3 10.6-1 15.8M228.3 52.5c19.9 16.1 34.6 38.3 41.4 63.7M119.2 29.3c10.2-2.7 20.9-4.2 31.9-4.2 23.1 0 44.6 6.4 63.1 17.4"/></svg>