<?xml version="1.0" encoding="utf-8"?>
<!-- Generator: Adobe Illustrator 19.1.0, SVG Export Plug-In . SVG Version: 6.00 Build 0)  -->
<svg version="1.1" id="Calque_1" xmlns="http://www.w3.org/2000/svg" xmlns:xlink="http://www.w3.org/1999/xlink" x="0px" y="0px"
	 viewBox="0 0 300 300" style="enable-background:new 0 0 300 300;" xml:space="preserve">
<style type="text/css">
	.st0{fill:none;stroke:#FFFFFF;stroke-linecap:round;stroke-width:5px;stroke-linejoin:round;stroke-miterlimit:10;}
</style>
<polyline class="st0" points="119.5,159 119.5,102.9 201.2,150 119.5,197.1 119.5,176 "/>
<line class="st0" x1="252" y1="150.5" x2="296" y2="150.5"/>
<line class="st0" x1="4" y1="150.5" x2="47" y2="150.5"/>
<line class="st0" x1="150.5" y1="252" x2="150.5" y2="296"/>
<line class="st0" x1="150.5" y1="4" x2="150.5" y2="48"/>
<g>
	<path class="st0" d="M249,221.9c-22.4,29.6-57.9,48.7-97.9,48.7c-67.8,0-122.8-55-122.8-122.8c0-49.6,29.4-92.2,71.6-111.6"/>
	<path class="st0" d="M265.1,193.6c-1.5,3.7-3.1,7.3-4.9,10.7"/>
	<path class="st0" d="M273.3,135.9c0.4,3.9,0.6,7.9,0.6,11.9c0,5.4-0.3,10.6-1,15.8"/>
	<path class="st0" d="M228.3,52.5c19.9,16.1,34.6,38.3,41.4,63.7"/>
	<path class="st0" d="M119.2,29.3c10.2-2.7,20.9-4.2,31.9-4.2c23.1,0,44.6,6.4,63.1,17.4"/>
</g>
</svg>
