<svg width="256" height="256" viewBox="0 0 256 256" xmlns="http://www.w3.org/2000/svg"><title>viseur</title><g id="Page-1" fill="none" fill-rule="evenodd"><g id="viseur" stroke-width="4" stroke="#FFF"><g id="Group"><path d="M217.425 128H256M0 128h37.699M128 217.425V256m0-256v38.575m0 80.658v17.534M119.233 128h17.534" id="Shape"/><path d="M194.192 172.8c-19.639 25.95-50.762 42.696-85.83 42.696C48.92 215.496.789 167.364.789 107.923c0-43.397 25.688-80.833 62.773-97.84M208.22 147.989c-1.316 3.244-2.719 6.4-4.297 9.38m11.485-59.879c.35 3.42.526 6.926.526 10.433 0 4.735-.263 9.293-.876 13.852m-39.014-97.49C193.49 38.4 206.378 57.863 212.34 80.132M80.395 4.033C89.337 1.666 98.718.35 108.362.35c20.164 0 39.101 5.61 55.233 15.254" transform="translate(21.041 18.411)" id="Shape"/></g><g id="Group"><path d="M105.907 66.192c4.208-17.447-.526-36.647-14.203-50.324-20.866-20.865-54.707-20.865-75.572 0A53.383 53.383 0 0 0 .438 54.005m4.296 20.691c-.701-1.578-1.315-3.156-1.753-4.822m17.008 25.074c-1.315-1.052-2.63-2.28-3.857-3.507-1.666-1.666-3.157-3.42-4.56-5.173m47.957 20.603c-10.258 1.052-20.69-.789-30.071-5.61m70.838-20.866c-2.28 3.945-5.173 7.715-8.504 11.134a53.652 53.652 0 0 1-18.499 12.098" id="Shape" transform="translate(74.52 74.52)"/></g></g></g></svg>